<?xml version="1.0" encoding="UTF-8" standalone="no"?>
<!-- DotLyn logo v2, ajusté pour une safe zone de 640px et suivant le PNG fourni -->

<svg
   width="1024"
   height="1024"
   viewBox="0 0 1024 1024"
   version="1.1"
   id="svg_v2"
   sodipodi:docname="Dotlyn-app-icon-github_notes.svg"
   inkscape:version="1.4.2 (f4327f4, 2025-05-13)"
   xml:space="preserve"
   xmlns:inkscape="http://www.inkscape.org/namespaces/inkscape"
   xmlns:sodipodi="http://sodipodi.sourceforge.net/DTD/sodipodi-0.dtd"
   xmlns="http://www.w3.org/2000/svg"
   xmlns:svg="http://www.w3.org/2000/svg"><defs
     id="defs3"><rect
       x="310.09266"
       y="605.1435"
       width="2.3141243"
       height="33.554802"
       id="rect4" /></defs><sodipodi:namedview
     id="namedview3"
     pagecolor="#ffffff"
     bordercolor="#000000"
     borderopacity="0.25"
     inkscape:showpageshadow="2"
     inkscape:pageopacity="0.0"
     inkscape:pagecheckerboard="0"
     inkscape:deskcolor="#d1d1d1"
     inkscape:zoom="1.0410156"
     inkscape:cx="512"
     inkscape:cy="512"
     inkscape:window-width="1718"
     inkscape:window-height="1360"
     inkscape:window-x="1706"
     inkscape:window-y="0"
     inkscape:window-maximized="0"
     inkscape:current-layer="svg_v2" /><!-- Fond blanc cassé sur tout le document --><rect
     x="0"
     y="0"
     width="1024"
     height="1024"
     style="display:inline;fill:#f8f8f8;fill-opacity:1;stroke:none"
     id="rect1"
     inkscape:label="Fond 1024*1024"
     sodipodi:insensitive="true" /><circle
     cx="512"
     cy="512"
     r="320"
     style="display:none;fill:none;stroke:#2c2c2c;stroke-width:2;stroke-opacity:0.7"
     id="safezone"
     inkscape:label="Safezone icone"
     sodipodi:insensitive="true" /><ellipse
     cx="614.96985"
     cy="510.42703"
     style="display:none;fill:none;stroke:#2c2c2c;stroke-width:1.44035;stroke-opacity:1"
     id="safezone-9"
     inkscape:label="zone icone secondaire"
     rx="211.976"
     ry="250.54697"
     sodipodi:insensitive="true" /><!-- Cercle de sécurité (safe zone) 640px diamètre, contour gris anthracite) --><!-- Ligne orange terre cuite --><rect
     x="464.80377"
     y="150.10666"
     width="293.96399"
     height="22"
     rx="8.8189297"
     transform="matrix(0.70516894,0.70903932,-0.69358521,0.72037459,0,0)"
     style="fill:#e36c2d;stroke:none;stroke-width:0.933871;stroke-dasharray:none"
     id="rect2"
     inkscape:label="Logo barre oblique"
     sodipodi:insensitive="true" /><!-- Point orange terre cuite --><circle
     cx="340.6236"
     cy="451.75455"
     style="fill:#e36c2d;stroke:none;stroke-width:0.666667"
     id="circle2"
     r="60"
     inkscape:label="Logo point"
     sodipodi:insensitive="true" /><!-- Texte Dot Lyn (Gris Anthracite, police Poppins ou Inter, gras) --><path
     fill="#2c2c2c"
     d="m 622.2095,682.45791 v 45.46439 l -53.3621,-36.37151 -53.36209,36.37151 v -45.46439 h -8.89368 c -34.38299,0 -62.25579,-28.49709 -62.25579,-63.65015 V 391.48582 c 0,-30.13109 23.89108,-54.55727 53.3621,-54.55727 h 249.02315 c 9.82395,0 17.78736,8.14213 17.78736,18.18576 v 309.15784 c 0,10.044 -7.96341,18.18576 -17.78736,18.18576 z m 0,-36.37151 H 728.93371 V 591.52912 H 506.59163 c -14.73562,0 -26.68105,12.21356 -26.68105,27.27864 0,15.06509 11.94543,27.27864 26.68105,27.27864 h 8.89368 V 609.71489 H 622.2095 Z M 728.93371,555.15763 V 373.30005 H 497.69794 V 555.8014 c 2.90467,-0.42347 5.8741,-0.64379 8.89369,-0.64379 z M 515.48531,391.48582 h 35.57473 v 36.3715 h -35.57473 z m 0,54.55727 h 35.57473 v 36.37151 h -35.57473 z m 0,54.55726 h 35.57473 v 36.37151 h -35.57473 z"
     id="path1"
     inkscape:label="Icone depot git"
     style="stroke-width:17.9855"
     sodipodi:insensitive="true" /></svg>
